# xmcd CD database file
#
# Track frame offsets:
#	150
#	20909
#	39996
#	56576
#	73434
#	89456
#	105478
#	121500
#	137383
#	154520
#	171378
#	189072
#	203283
#	219584
#	239507
#	258734
#	273363
#
# Disc length: 3797 seconds
#
# Revision: 0
# Processed by: cddbd v1.5.2PL0 Copyright (c) Steve Scherf et al.
# Submitted via: jetAudio 7
#
DISCID=ea0ed311
DTITLE=음악가 없음 - 앨범 없음
DYEAR=1900
DGENRE=장르 없음
TTITLE0=月半小夜曲
TTITLE1=雨夜的浪漫
TTITLE2=今天我非常寂寞
TTITLE3=卡門
TTITLE4=酒幹淌賣無
TTITLE5=梁祝
TTITLE6=晩風
TTITLE7=世事何曾是絶對
TTITLE8=零時十分
TTITLE9=隨想曲
TTITLE10=流金歲月
TTITLE11=禁色
TTITLE12=銀色的月光下(塔塔爾民族歌)
TTITLE13=meditation
TTITLE14=城裏的月光
TTITLE15=danny boy
TTITLE16=carddle song
EXTD=
EXTT0=
EXTT1=
EXTT2=
EXTT3=
EXTT4=
EXTT5=
EXTT6=
EXTT7=
EXTT8=
EXTT9=
EXTT10=
EXTT11=
EXTT12=
EXTT13=
EXTT14=
EXTT15=
EXTT16=
PLAYORDER=
